<svg width="420" height="84" viewBox="0 0 420 84" fill="none" xmlns="http://www.w3.org/2000/svg">
  <defs>
    <linearGradient id="g1" x1="0" y1="0" x2="1" y2="1">
      <stop offset="0%" stop-color="#00B3F0"/>
      <stop offset="100%" stop-color="#0A1D3D"/>
    </linearGradient>
    <linearGradient id="g2" x1="0" y1="0" x2="1" y2="1">
      <stop offset="0%" stop-color="#0E6EFD"/>
      <stop offset="100%" stop-color="#00B3F0"/>
    </linearGradient>
  </defs>
  <rect x="0" y="6" width="68" height="68" rx="18" fill="url(#g1)"/>
  <path d="M18 52V24h23c10 0 16 6 16 14 0 7-4 11-10 13l10 11H47L38 52H18zm13-11h8c3 0 5-2 5-4s-2-4-5-4h-8v8z" fill="white"/>
  <rect x="22" y="47" width="5" height="11" rx="2.5" fill="#9BDFFF"/>
  <rect x="30" y="41" width="5" height="17" rx="2.5" fill="#6ACBFF"/>
  <rect x="38" y="34" width="5" height="24" rx="2.5" fill="#35B6FA"/>
  <text x="84" y="47" font-family="Segoe UI, Arial, sans-serif" font-size="42" font-weight="800" fill="#0A1D3D">REN</text>
  <text x="180" y="47" font-family="Segoe UI, Arial, sans-serif" font-size="42" font-weight="800" fill="url(#g2)">BI</text>
  <text x="236" y="47" font-family="Segoe UI, Arial, sans-serif" font-size="42" font-weight="300" fill="#1EAAF2">360</text>
  <text x="85" y="68" font-family="Segoe UI, Arial, sans-serif" font-size="12" letter-spacing="3" fill="#435B7A">POWERED BY RENSOFTWARE</text>
</svg>
